<svg xmlns="http://www.w3.org/2000/svg" xmlns:xlink="http://www.w3.org/1999/xlink" version="1.1" width="1000" height="1000" viewBox="0 0 1000 1000" xml:space="preserve">
<desc>Created with Fabric.js 3.5.0</desc>
<defs>
</defs>
<rect x="0" y="0" width="100%" height="100%" fill="rgba(255,255,255,0)"/>
<g transform="matrix(3.2071 0 0 3.2071 499.9968 499.9968)" id="733307">
<g style="" vector-effect="non-scaling-stroke">
		<g transform="matrix(1 0 0 1 0 0)">
<path style="stroke: none; stroke-width: 1; stroke-dasharray: none; stroke-linecap: butt; stroke-dashoffset: 0; stroke-linejoin: miter; stroke-miterlimit: 4; is-custom-font: none; font-file-url: none; fill: rgb(255,255,255); fill-opacity: 0; fill-rule: nonzero; opacity: 1;" transform=" translate(-141.73, -141.73)" d="M -0.003 248.028 c 0 19.488 15.945 35.434 35.434 35.434 h 212.598 c 19.489 0 35.434 -15.946 35.434 -35.434 V 35.43 c 0 -19.488 -15.945 -35.432 -35.434 -35.432 H 35.431 C 15.942 -0.002 -0.003 15.942 -0.003 35.43 v 212.598 z" stroke-linecap="round"/>
</g>
		<g transform="matrix(1 0 0 1 -0.0005 -0.0004)">
<path style="stroke: none; stroke-width: 1; stroke-dasharray: none; stroke-linecap: butt; stroke-dashoffset: 0; stroke-linejoin: miter; stroke-miterlimit: 4; is-custom-font: none; font-file-url: none; fill: rgb(0,0,0); fill-rule: nonzero; opacity: 1;" transform=" translate(-141.7295, -141.7296)" d="M 149.484 227.338 l 77.843 -77.839 c 0.661 -0.731 3.221 -3.421 3.221 -7.768 c 0 -4.348 -2.56 -7.106 -3.212 -7.758 l -0.002 -0.002 l -77.85 -77.848 c -4.285 -4.285 -11.232 -4.285 -15.52 0 c -4.283 4.285 -4.283 11.234 0.002 15.52 l 59.118 59.117 l -129.201 -0.003 c -6.06 0 -10.972 4.913 -10.972 10.974 c 0 6.06 4.912 10.974 10.972 10.974 h 129.201 l -59.118 59.112 c -4.285 4.286 -4.285 11.233 -0.002 15.519 c 4.288 4.285 11.235 4.285 15.52 0.002" stroke-linecap="round"/>
</g>
</g>
</g>
</svg>